<?xml version="1.0" encoding="utf-8"?>
<!-- Generator: Adobe Illustrator 16.0.4, SVG Export Plug-In . SVG Version: 6.00 Build 0)  -->
<!DOCTYPE svg PUBLIC "-//W3C//DTD SVG 1.1//EN" "http://www.w3.org/Graphics/SVG/1.1/DTD/svg11.dtd">
<svg version="1.1" id="Layer_1" xmlns="http://www.w3.org/2000/svg" xmlns:xlink="http://www.w3.org/1999/xlink" x="0px" y="0px"
	 width="129.762px" height="253.037px" viewBox="0 0 129.762 253.037" enable-background="new 0 0 129.762 253.037"
	 xml:space="preserve">
<g>
	<g>
		<path fill="#8CBA6E" d="M99.505,140.484c-14.698-17.038-10.612-80.146-59.646-68.663c-49.367,11.561-26.037,68.263-31.333,87.812
			C3.878,176.79,0,187.012,0,199.939c0,32.489,25.713,53.098,62.735,53.098c37.019,0,67.026-26.335,67.026-58.825
			C129.762,173.341,115.26,158.74,99.505,140.484z"/>
		<path fill="#596D42" d="M33.845,85.032c0,0,12.01,10.712,23.372-5.514C57.217,79.519,40.986,86.657,33.845,85.032z"/>
		<path fill="#73A353" d="M22.485,84.012"/>
		<path fill="#596D42" d="M48.371,85.956c0,0,2.028-71.36-27.833-73.306c0,0-10.875,3.654-5.76,7.549
			c0,0,32.371,11.255,27.626,65.757H48.371z"/>
		<path fill="#CAE19B" d="M79.946,130.802c0,0,6.484,14.284,16.874,22.721c10.384,8.439,22.206,21.024,25.969,35.709
			c4.954,19.352-1.302,20.121-5.197,29.211c0,0,7.026-11.685,1.951-26.619c-6.459-18.979-14.282-25.314-25.323-35.058
			C83.187,147.031,79.946,130.802,79.946,130.802z"/>
		<path fill="#E18256" d="M19.565,118.629"/>
		<path fill="#CAE19B" d="M64.686,79.841c-0.854-0.438,16.583,12.954,14.603,31.162C79.288,111.003,58.356,78.378,64.686,79.841z"/>
	</g>
	<path fill="#6DA348" d="M46.402,50.563c0,0,43.916-37.236,73.511-9.548c0,0-26.2-53.756-48.69-38.186
		C58.812,11.42,48.311,30.514,46.402,50.563z"/>
	<path fill="#CAE19B" d="M56.904,32.422c0,0,23.866-24.818,41.052-10.5C97.956,21.922,78.861-5.766,56.904,32.422z"/>
</g>
</svg>
