<?xml version="1.0" encoding="utf-8"?>
<!-- Generator: Adobe Illustrator 16.0.4, SVG Export Plug-In . SVG Version: 6.00 Build 0)  -->
<!DOCTYPE svg PUBLIC "-//W3C//DTD SVG 1.1//EN" "http://www.w3.org/Graphics/SVG/1.1/DTD/svg11.dtd">
<svg version="1.1" id="Layer_1" xmlns="http://www.w3.org/2000/svg" xmlns:xlink="http://www.w3.org/1999/xlink" x="0px" y="0px"
	 width="344.412px" height="168.852px" viewBox="0 0 344.412 168.852" enable-background="new 0 0 344.412 168.852"
	 xml:space="preserve">
<g>
	<g>
		<path fill="#8CBA6E" d="M57.066,80.523c-8.425-9.766-6.083-45.938-34.188-39.356C-5.419,47.793,10.535,81.34,4.917,91.5
			c-5.617,10.161-4.887,15.692-4.887,23.103c0,18.622,14.738,30.435,35.959,30.435c21.219,0,38.419-15.095,38.419-33.718
			C74.409,99.356,66.096,90.987,57.066,80.523z"/>
		<path fill="#596D42" d="M19.43,48.739c0,0,6.884,6.14,13.396-3.16C32.827,45.579,23.524,49.671,19.43,48.739z"/>
		<path fill="#73A353" d="M12.919,48.154"/>
		<path fill="#596D42" d="M27.756,49.269c0,0,1.163-40.902-15.953-42.018c0,0-6.233,2.095-3.302,4.327
			c0,0,18.555,6.451,15.835,37.69H27.756z"/>
		<path fill="#CAE19B" d="M45.855,74.974c0,0,3.717,8.188,9.672,13.023c5.952,4.837,12.729,12.051,14.885,20.468
			c2.84,11.092-0.746,11.533-2.979,16.743c0,0,4.027-6.697,1.118-15.258c-3.702-10.879-8.187-14.51-14.515-20.095
			C47.712,84.276,45.855,74.974,45.855,74.974z"/>
		<path fill="#E18256" d="M11.246,67.996"/>
		<path fill="#CAE19B" d="M37.108,45.764c-0.489-0.251,9.505,7.425,8.37,17.861C45.478,63.625,33.48,44.925,37.108,45.764z"/>
	</g>
	<path fill="#6DA348" d="M26.628,28.982c0,0,25.172-21.344,42.135-5.473c0,0-15.018-30.812-27.908-21.888
		C33.742,6.546,27.722,17.49,26.628,28.982z"/>
	<path fill="#CAE19B" d="M32.648,18.584c0,0,13.68-14.226,23.53-6.019C56.178,12.565,45.233-3.305,32.648,18.584z"/>
</g>
<g>
	<path fill="#424D40" d="M109.877,108.811c-2.032,1.707-4.926,3.379-9.03,4.82c0.102,0.393,0.204,0.748,0.306,1.112
		C105.483,112.927,108.198,110.84,109.877,108.811z"/>
	<path fill="#424D40" d="M106.478,88.114l-0.933-1.377l-1.062,3.36c-1.16,3.672-2.664,7.401-5.468,10.62
		C103.154,97.111,105.069,92.57,106.478,88.114z"/>
	<path fill="#424D40" d="M135.479,96.047c0.455-0.566,0.911-1.097,1.37-1.603c-0.491,0.441-0.98,0.919-1.468,1.43
		C135.412,95.933,135.45,95.987,135.479,96.047z"/>
	<path fill="#424D40" d="M120.992,103.557c0,1.023-0.037,2.081-0.115,3.273h-0.763l-0.475,0.93
		c-2.442,4.773-6.193,10.769-9.602,14.575c3.85-3.348,8.669-10.843,11.602-16.575l0.475-0.93h0.763
		c0.078-1.192,0.115-2.25,0.115-3.273c0-3.54-0.304-6.436-0.95-9.115l-0.021-0.087c-0.077-0.005-0.158-0.013-0.233-0.017
		l-2.282-0.117l0.536,2.221C120.688,97.121,120.992,100.017,120.992,103.557z"/>
	<path fill="#424D40" d="M64.888,108.425c0.395-0.01,0.781-0.02,1.153-0.028c0.994-2.285,2.016-4.646,2.966-7.12
		c6.432-16.075,11.28-34.092,12.37-38.257c-0.035-0.396-0.091-1.072-0.091-1.407c0-1.92,0.319-3.436,0.923-4.583
		c-1.934,0.944-2.923,3.137-2.923,6.583c0,0.335,0.056,1.011,0.091,1.407c-1.09,4.165-5.938,22.182-12.37,38.257
		C66.325,105.051,65.606,106.752,64.888,108.425z"/>
	<path fill="#424D40" d="M83.672,91.528c-0.528,1.96-1.113,3.913-1.722,5.857c0.25,3.415,0.511,6.71,0.803,9.899
		c0.722-0.114,1.449-0.224,2.15-0.354C84.432,102.069,84.056,96.925,83.672,91.528z"/>
	<path fill="#424D40" d="M125.027,136.567c-1.256,0-5.356-0.467-5.356-6.464c0-1.344,0.095-2.748,0.253-4.198
		c-0.655,0.97-1.35,1.932-2.076,2.874c-0.104,1.139-0.177,2.255-0.177,3.324c0,5.997,4.101,6.464,5.356,6.464
		c3.754,0,8.332-3.163,8.842-3.522l1.001-0.708l-0.161-0.534C131.006,134.85,127.795,136.567,125.027,136.567z"/>
	<path fill="#424D40" d="M60.972,118.331c-9.358,0.498-16.002,1.774-18.072,5.293c3.113-2.036,8.76-2.904,16.072-3.293
		c-1.656,2.806-3.31,5.118-4.958,6.957C56.322,125.257,58.646,122.272,60.972,118.331z"/>
	<path fill="#424D40" d="M146.271,110.675h-1.705v-1.706c0-7.964-1.18-8.905-1.229-8.941c-0.639,0.007-1.709,0.853-2.91,2.374
		c0.354-0.239,0.665-0.371,0.91-0.374c0.05,0.036,1.229,0.978,1.229,8.941v1.706h1.705c4.178,0,7.667-1.69,9.566-4.311
		C151.882,109.809,149.253,110.675,146.271,110.675z"/>
	<path fill="#424D40" d="M42.273,142.874c-9.689,0-16.199-6.022-16.199-14.983c0-3.854,1.241-6.932,3.307-9.401
		c-3.245,2.743-5.307,6.428-5.307,11.401c0,8.961,6.51,14.983,16.199,14.983c7.503,0,14.619-3.556,21.059-10.393
		C55.43,140.009,49.007,142.874,42.273,142.874z"/>
	<path fill="#424D40" d="M100.694,140.218c-9.526,0-12.873-12.178-14.604-23.447c-3.672,0.506-7.807,0.854-12.559,1.056
		c-0.358,0.672-0.725,1.311-1.09,1.957c4.37-0.207,8.215-0.54,11.648-1.013c1.73,11.27,5.077,23.447,14.604,23.447
		c5.022,0,9.98-3.402,14.198-7.938C109.144,137.775,104.943,140.218,100.694,140.218z"/>
	<g>
		<path fill="#E18256" d="M42.273,142.874c-9.689,0-16.199-6.022-16.199-14.983c0-18.084,27.152-19.198,39.967-19.494
			c0.994-2.285,2.016-4.646,2.966-7.12c6.432-16.075,11.28-34.092,12.37-38.257c-0.035-0.396-0.091-1.072-0.091-1.407
			c0-4.729,1.84-7.127,5.468-7.127c4.819,0,8.012,4.442,8.012,6.242c0.88,13.892,1.889,28.473,3.654,40.497
			c4.564-3.686,6.588-8.455,8.063-13.127l1.062-3.36l1.977,2.917c0.201,0.297,4.939,7.352,4.939,12.465
			c0,3.319-1.812,9.366-13.613,13.512c2.509,9.668,5.07,10.452,5.822,10.452c3.861,0,11.077-10.716,14.97-18.323l0.475-0.93h0.763
			c0.078-1.192,0.115-2.25,0.115-3.273c0-3.54-0.304-6.436-0.95-9.115l-0.536-2.221l2.282,0.117c3.78,0.194,9.72,1.652,11.691,5.709
			c4.163-5.189,8.49-7.814,12.896-7.814c6.61,0,9.008,8.034,9.008,13.436c0,5.135-4.776,9.007-11.111,9.007h-1.705v-1.706
			c0-7.964-1.18-8.905-1.229-8.941c-2.238,0.025-9.743,10.286-9.743,24.101c0,2.623,0.31,4.99,0.923,7.035l0.354,1.174l-1.001,0.708
			c-0.51,0.359-5.088,3.522-8.842,3.522c-1.256,0-5.356-0.467-5.356-6.464c0-1.344,0.095-2.748,0.253-4.198
			c-4.941,7.311-12.021,14.312-19.229,14.312c-9.526,0-12.873-12.178-14.604-23.447c-3.672,0.506-7.807,0.854-12.559,1.056
			C64.802,134.219,54.007,142.874,42.273,142.874z M60.972,118.331c-11.381,0.605-18.764,2.354-18.764,7.9
			c0,3.714,2.883,4.269,4.602,4.269C51.447,130.5,56.205,126.409,60.972,118.331z M83.672,91.528
			c-1.5,5.566-3.345,11.127-5.441,16.368c2.312-0.248,4.542-0.569,6.672-0.966C84.432,102.069,84.056,96.925,83.672,91.528z"/>
	</g>
</g>
<g>
	<path fill="#424D40" d="M214.565,116.186c0.907-2.47,1.421-5.225,1.421-7.691c0-2.76-0.656-5.707-2.499-5.707
		c-0.917,0-2.16,0.881-3.498,2.596c0.555-0.389,1.064-0.596,1.498-0.596c1.843,0,2.499,2.947,2.499,5.707
		c0,1.938-0.326,4.049-0.902,6.064C213.576,116.429,214.068,116.295,214.565,116.186z"/>
	<path fill="#424D40" d="M267.361,104.692l0.104-0.438c-0.231,0.364-0.462,0.731-0.684,1.11l-1.107,0.018l-0.313,1.31
		c-0.36,1.509-4.024,9.305-9.094,14.882C262.35,116.08,266.955,106.394,267.361,104.692z"/>
	<path fill="#424D40" d="M268.782,103.365c1.144-1.957,2.438-3.719,3.831-5.261c-1.641,1.472-3.182,3.248-4.563,5.272
		L268.782,103.365z"/>
	<path fill="#424D40" d="M230.305,114.092c0.036,0,0.071,0,0.106,0.002c1.273-6.081,4.28-11.716,8.125-15.928
		c-4.344,3.925-7.908,9.636-9.645,15.961C229.589,114.097,230.072,114.092,230.305,114.092z"/>
	<path fill="#424D40" d="M250.501,103.958c0-0.618-0.146-2.057-1.504-2.057c-1.081,0-2.375,0.849-3.516,2.494
		c0.525-0.321,1.041-0.494,1.516-0.494c1.357,0,1.504,1.438,1.504,2.057c0,1.13-0.46,2.275-1.306,3.386
		C249.311,107.655,250.501,105.784,250.501,103.958z"/>
	<path fill="#424D40" d="M255.609,113.962c-3.507,3.152-8.005,5.477-12.51,6.669c0.104,0.465,0.227,0.879,0.36,1.26
		C248.054,120.271,252.466,117.534,255.609,113.962z"/>
	<path fill="#424D40" d="M307.357,103.966c0,0.676-0.02,1.364-0.047,2.059c-1.851,4.25-4.809,9.514-7.704,12.882
		c3.457-2.862,7.421-9.641,9.704-14.882c0.027-0.694,0.047-1.383,0.047-2.059c0-3.414-0.312-6.36-0.949-9.005l-0.021-0.087
		c-0.077-0.005-0.159-0.013-0.234-0.017l-2.281-0.116l0.536,2.22C307.045,97.605,307.357,100.552,307.357,103.966z"/>
	<path fill="#424D40" d="M291.885,92.599c-0.112,0.079-0.219,0.167-0.327,0.253c0.03,0.019,0.064,0.03,0.094,0.05
		C291.726,92.799,291.807,92.699,291.885,92.599z"/>
	<path fill="#424D40" d="M322.254,97.561c0.055-0.06,0.108-0.114,0.163-0.173c-0.057,0.052-0.112,0.104-0.169,0.156
		C322.25,97.55,322.252,97.555,322.254,97.561z"/>
	<path fill="#424D40" d="M282.077,119.945c0.712-0.505,1.396-1.178,2.009-2.011c0.486-4.091,1.263-8.308,2.202-11.974
		c-0.668-2.234-2.025-3.506-3.768-3.506c-0.937,0-2.2,0.813-3.312,2.423c0.472-0.281,0.921-0.423,1.312-0.423
		c1.742,0,3.1,1.271,3.768,3.506c-0.939,3.666-1.716,7.883-2.202,11.974C282.083,119.938,282.08,119.941,282.077,119.945z"/>
	<path fill="#424D40" d="M293.033,132.219c-2.542,0-4.71-0.976-6.383-2.845c-3.041,3.433-6.729,5.17-10.991,5.17
		c-5.302,0-9.554-3.929-11.011-9.655c-0.579,0.738-1.222,1.511-1.915,2.294c1.527,5.564,5.717,9.361,10.926,9.361
		c4.263,0,7.95-1.737,10.991-5.17c1.673,1.869,3.841,2.845,6.383,2.845c3.982,0,8.238-3.033,11.93-6.994
		C299.78,130.162,296.313,132.219,293.033,132.219z"/>
	<path fill="#424D40" d="M184.895,158.618c0-2.29,0.768-7.215,1.832-14.03c0.798-5.112,1.738-11.139,2.614-17.702
		c-0.639,0.846-1.332,1.698-2.072,2.53c-0.855,6.356-1.766,12.198-2.542,17.172c-1.064,6.815-1.832,11.74-1.832,14.03
		c0,8.233,9.521,8.233,14.096,8.233h2.065l-0.385-2.001C193.993,166.847,184.895,166.672,184.895,158.618z"/>
	<path fill="#424D40" d="M190.175,94.158c-0.048,4.509-0.263,9.396-0.664,14.605c-2.408,5.941-5.04,10.615-7.555,13.579
		c3.081-2.549,6.497-8.036,9.555-15.579c0.445-5.783,0.672-11.192,0.681-16.097c-0.037-0.005-0.088-0.011-0.104-0.013l-0.095-0.011
		C191.795,91.948,191.177,93.123,190.175,94.158z"/>
	<path fill="#424D40" d="M206.737,134.875c-2.279,0-3.938-0.831-5.031-2.082c-0.149,1.112-0.288,2.2-0.419,3.264
		c0.935,0.513,2.078,0.818,3.45,0.818c4.197,0,8.624-2.431,12.376-6.601C213.837,133.209,210.208,134.875,206.737,134.875z"/>
	<path fill="#424D40" d="M333.302,112.523h-1.705v-1.706c0-5.846-0.739-8.656-1.192-9.631c-0.65,0.39-1.861,1.397-3.23,2.939
		c0.5-0.435,0.93-0.759,1.23-0.939c0.453,0.975,1.192,3.785,1.192,9.631v1.706h1.705c4.114,0,7.629-1.731,9.549-4.357
		C338.882,111.632,336.248,112.523,333.302,112.523z"/>
	<path fill="#424D40" d="M310.839,138.969c-1.442,0-4.804-0.598-4.804-6.131c0-2.836,0.424-6.264,0.967-9.954
		c-0.658,0.81-1.345,1.596-2.049,2.352c-0.518,3.554-0.918,6.858-0.918,9.603c0,5.533,3.361,6.131,4.804,6.131
		c3.917,0,8.92-3.912,9.477-4.356l0.899-0.72l-0.113-0.378C317.263,136.807,313.752,138.969,310.839,138.969z"/>
	<path fill="#424D40" d="M243.577,137.642c-8.355,0-13.472-5.867-13.853-15.769c-2.516,0.451-4.809,0.911-6.947,1.396
		c-0.375,0.63-0.77,1.231-1.171,1.818c1.902-0.418,3.922-0.82,6.118-1.214c0.381,9.901,5.497,15.769,13.853,15.769
		c7.52,0,13.831-4.751,18.235-9.446C255.581,134.15,250.022,137.642,243.577,137.642z"/>
	<path fill="#424D40" d="M184.637,83.823l-0.78-0.494l-0.815,1.808c-0.021,0.047-0.193,0.413-0.589,0.946
		C183.569,85.222,184.255,84.385,184.637,83.823z"/>
	<path fill="#424D40" d="M184.916,131.806c-3.084,2.815-6.782,4.95-10.926,4.95c-6.096,0-12.659-4.896-12.659-15.647
		c0-4.826,1.402-10.724,2.888-16.968c0.381-1.604,0.77-3.234,1.141-4.883c-2.761-0.233-6.021-1.071-6.021-4.593
		c0-1.47,0.658-3.309,1.105-4.391l-0.875-0.415l-0.733,1.53c-0.153,0.318-1.497,3.177-1.497,5.275c0,3.521,3.26,4.359,6.021,4.593
		c-0.371,1.648-0.76,3.279-1.141,4.883c-1.485,6.244-2.888,12.142-2.888,16.968c0,10.751,6.563,15.647,12.659,15.647
		C177.072,138.756,181.489,135.548,184.916,131.806z"/>
	<path fill="#424D40" d="M177.41,100.628c5.821-0.956,9.749-2.816,11.542-5.413c-2.416,1.765-6.189,3.015-11.202,3.655
		C177.636,99.456,177.522,100.042,177.41,100.628z"/>
	<path fill="#424D40" d="M165.859,83.718c0,1.729-0.113,3.574-0.331,5.508c0.497,0.086,1.063,0.164,1.711,0.221
		c0.411-2.754,0.619-5.348,0.619-7.729c0-2.627-0.245-4.988-0.728-7.019l-0.022-0.095c-0.109-0.001-0.209-0.006-0.319-0.006h-2.158
		l0.5,2.101C165.614,78.729,165.859,81.091,165.859,83.718z"/>
</g>
<g>
	<path fill="#E18256" d="M198.991,166.852c-4.574,0-14.096,0-14.096-8.233c0-2.29,0.768-7.215,1.832-14.03
		c0.798-5.112,1.738-11.139,2.614-17.702c-3.639,4.821-8.974,9.87-15.352,9.87c-6.096,0-12.659-4.896-12.659-15.647
		c0-4.826,1.402-10.724,2.888-16.968c0.381-1.604,0.77-3.234,1.141-4.883c-2.761-0.233-6.021-1.071-6.021-4.593
		c0-2.099,1.344-4.957,1.497-5.275l0.733-1.53l1.533,0.728c0.005,0.002,1.401,0.622,4.138,0.859
		c0.411-2.754,0.619-5.348,0.619-7.729c0-2.627-0.245-4.988-0.728-7.019l-0.5-2.101h2.158c8.44,0,11.885,2.386,11.885,8.234
		c0,1.682-0.274,3.9-0.742,6.78c3.873-1.831,5.053-4.349,5.109-4.477l0.815-1.808l1.673,1.06c0.187,0.12,4.541,2.987,4.541,7.296
		c0,4.762-5.071,8.003-14.321,9.186c-1.358,7-2.718,14.14-2.718,18.477c0,1.981,0.33,6.593,3.385,6.593
		c3.788,0,8.797-6.573,13.095-17.176c0.455-5.905,0.685-11.428,0.685-16.414v-1.903l1.893,0.208
		c0.444,0.048,9.558,1.119,11.991,6.578c2.721-3.202,6.09-4.819,10.062-4.819c7.194,0,11.665,5.655,11.665,14.762
		c0,2.915-0.44,5.968-1.306,9.107c2.041-0.174,3.36-0.19,3.804-0.19c0.036,0,0.071,0,0.106,0.002
		c2.645-12.626,12.75-23.348,22.35-23.348c5.739,0,9.45,3.884,9.45,9.893c0,9.911-9.569,17.466-19.112,19.992
		c0.933,4.146,3.089,4.748,5.126,4.748c9.646,0,18.563-18.288,19.136-20.687l0.313-1.31l1.107-0.018
		c4.305-7.37,10.726-12.066,16.616-12.066c2.531,0,4.597,0.526,6.254,1.603c1.224-1.683,2.883-3.263,5.031-3.263
		c2.472,0,5.355,2.012,5.355,7.681c0,4.042-2.312,11.141-6.055,18.604c0.236,2.988,0.739,4.04,0.942,4.354
		c3.839-0.381,9.477-9.578,12.384-16.253c0.027-0.694,0.047-1.383,0.047-2.059c0-3.414-0.312-6.36-0.949-9.005l-0.536-2.22
		l2.281,0.116c4.101,0.212,10.734,1.887,12.102,6.703c4.417-4.838,8.906-7.368,13.15-7.368c6.562,0,9.007,8.173,9.007,13.324
		c0,5.051-4.88,9.007-11.109,9.007h-1.705v-1.706c0-5.846-0.739-8.656-1.192-9.631c-2.156,1.291-10.445,9.281-10.445,21.582
		c0,2.765,0.369,8.171,0.926,10.021l0.33,1.103l-0.899,0.72c-0.557,0.444-5.56,4.356-9.477,4.356c-1.442,0-4.804-0.598-4.804-6.131
		c0-2.836,0.424-6.264,0.967-9.954c-4.101,5.045-9.23,9.335-13.97,9.335c-2.542,0-4.71-0.976-6.383-2.845
		c-3.041,3.433-6.729,5.17-10.991,5.17c-5.302,0-9.554-3.929-11.011-9.655c-4.273,5.446-11.746,12.753-21.071,12.753
		c-8.355,0-13.472-5.867-13.853-15.769c-2.516,0.451-4.809,0.911-6.947,1.396c-4.273,7.178-10.369,11.606-16.04,11.606
		c-2.279,0-3.938-0.831-5.031-2.082c-1.195,8.921-1.782,16.283-1.782,22.284c0,3.959,0.243,7.148,0.743,9.746l0.39,2.028H198.991z
		 M213.487,102.787c-2.472,0-7.301,6.365-10.006,18.323c1.927-1.759,4.587-3.185,7.774-4.077c0.427-0.108,0.816-0.212,1.209-0.318
		c0.689-0.185,1.396-0.374,2.101-0.529c0.907-2.47,1.421-5.225,1.421-7.691C215.986,105.734,215.33,102.787,213.487,102.787z
		 M282.52,102.455c-2.089,0-5.819,4.016-5.819,12.015c0,4.422,1.558,6.482,2.61,6.482c1.618,0,3.382-1.121,4.774-3.018
		c0.486-4.091,1.263-8.308,2.202-11.974C285.62,103.727,284.262,102.455,282.52,102.455z M248.998,101.901
		c-2.193,0-5.263,3.476-6.146,10.052c4.779-2.201,7.65-5.152,7.65-7.995C250.501,103.34,250.355,101.901,248.998,101.901z"/>
</g>
</svg>
